<svg width="237" height="171" viewBox="0 0 237 171" fill="none" xmlns="http://www.w3.org/2000/svg">
<path d="M10.271 86.2175C12.8379 81.0454 14.2897 76.5405 13.5137 76.1556C12.7377 75.7706 10.0277 79.6514 7.46083 84.8235C4.89392 89.9957 3.44212 94.5006 4.21814 94.8855C4.99415 95.2704 7.70413 91.3897 10.271 86.2175Z" fill="#E0E0E0"/>
<path d="M140.484 150.871C143.051 145.698 144.705 141.294 144.177 141.032C143.65 140.77 141.142 144.751 138.575 149.923C136.008 155.096 134.355 159.5 134.882 159.762C135.409 160.024 137.917 156.043 140.484 150.871Z" fill="#E0E0E0"/>
<path d="M70.5113 124.724L65.6733 120.73L52.357 136.853L57.195 140.846L70.5113 124.724Z" fill="#D5A76B"/>
<path opacity="0.05" d="M59.3858 142.133L66.2579 143.748L71.0447 123.394L64.1726 121.779L59.3858 142.133Z" fill="black"/>
<path d="M60.1502 142.312L66.2579 143.748L71.0447 123.394L64.937 121.959L60.1502 142.312Z" fill="#D5A76B"/>
<path d="M13.7461 75.6873L3.98574 95.3538L134.66 160.174L144.421 140.508L13.7461 75.6873Z" fill="url(#paint0_linear)"/>
<path d="M134.893 159.706C132.335 158.479 2.34467 93.9562 4.21814 94.8855C11.433 83.8763 13.5137 76.1556 13.5137 76.1556L144.188 140.976C144.188 140.976 139.599 149.028 134.893 159.706Z" fill="#F5F5F5"/>
<path opacity="0.05" d="M81.4271 109.844L70.6546 104.5L61.359 123.23L72.1315 128.573L81.4271 109.844Z" fill="black"/>
<path d="M80.9587 109.611L71.123 104.732L61.8274 123.462L71.6631 128.341L80.9587 109.611Z" fill="#D5A76B"/>
<path opacity="0.05" d="M79.0852 108.682L72.5281 105.429L63.2325 124.159L69.7896 127.412L79.0852 108.682Z" fill="black"/>
<path d="M78.6169 108.45L72.9964 105.662L63.7008 124.392L69.3213 127.179L78.6169 108.45Z" fill="#D5A76B"/>
<path d="M77.86 168.859C78.3415 168.859 78.7318 168.469 78.7318 167.987C78.7318 167.506 78.3415 167.116 77.86 167.116C77.3786 167.116 76.9883 167.506 76.9883 167.987C76.9883 168.469 77.3786 168.859 77.86 168.859Z" fill="#DBDBDB"/>
<g opacity="0.5">
<path opacity="0.5" d="M9.65238 143.583H8.75848V148.647H9.65238V143.583Z" fill="#47E6B1"/>
<path opacity="0.5" d="M11.7381 146.562V145.668H6.67272V146.562H11.7381Z" fill="#47E6B1"/>
</g>
<g opacity="0.5">
<path opacity="0.5" d="M234.914 80.4302H234.02V85.4943H234.914V80.4302Z" fill="#47E6B1"/>
<path opacity="0.5" d="M237 83.4091V82.5154H231.935V83.4091H237Z" fill="#47E6B1"/>
</g>
<g opacity="0.5">
<path opacity="0.5" d="M15.0158 17.5755H14.1219V22.6396H15.0158V17.5755Z" fill="#47E6B1"/>
<path opacity="0.5" d="M17.1015 20.5544V19.6607H12.0361V20.5544H17.1015Z" fill="#47E6B1"/>
</g>
<g opacity="0.5">
<path opacity="0.5" d="M208.097 9.83036H207.203V14.8945H208.097V9.83036Z" fill="#47E6B1"/>
<path opacity="0.5" d="M210.183 12.8092V11.9156H205.118V12.8092H210.183Z" fill="#47E6B1"/>
</g>
<path opacity="0.5" d="M3.6619 75.502C3.41556 75.3948 3.21727 75.2007 3.10477 74.9568C2.99228 74.7128 2.97343 74.436 3.05182 74.1791C3.0645 74.1397 3.07249 74.099 3.07563 74.0577C3.08279 73.94 3.05185 73.8231 2.98737 73.7243C2.92289 73.6256 2.82831 73.5502 2.71763 73.5094C2.60696 73.4686 2.48607 73.4645 2.37289 73.4977C2.25971 73.531 2.16024 73.5998 2.08923 73.6939C2.06481 73.7273 2.04441 73.7635 2.02847 73.8017C1.92119 74.048 1.72707 74.2462 1.48306 74.3587C1.23906 74.4712 0.962209 74.49 0.70521 74.4116C0.66581 74.3989 0.625048 74.391 0.583775 74.3878C0.466029 74.3807 0.349106 74.4116 0.250324 74.4761C0.151542 74.5405 0.0761554 74.6351 0.0353289 74.7457C-0.00549753 74.8564 -0.00959086 74.9772 0.0236533 75.0904C0.0568974 75.2035 0.12571 75.303 0.219902 75.374C0.253323 75.3984 0.289508 75.4188 0.327707 75.4347C0.574045 75.542 0.772336 75.736 0.884832 75.98C0.997328 76.2239 1.01617 76.5007 0.937786 76.7576C0.925101 76.797 0.917109 76.8378 0.913976 76.879C0.906808 76.9967 0.93776 77.1136 1.00224 77.2124C1.06672 77.3111 1.1613 77.3865 1.27197 77.4273C1.38265 77.4681 1.50353 77.4722 1.61672 77.439C1.7299 77.4058 1.82936 77.337 1.90038 77.2428C1.9248 77.2094 1.94519 77.1732 1.96113 77.135C2.06842 76.8887 2.26254 76.6905 2.50654 76.578C2.75055 76.4656 3.0274 76.4467 3.2844 76.5251C3.3238 76.5378 3.36456 76.5458 3.40583 76.5489C3.52358 76.5561 3.6405 76.5251 3.73929 76.4607C3.83807 76.3962 3.91346 76.3017 3.95429 76.191C3.99511 76.0804 3.99921 75.9595 3.96596 75.8464C3.93272 75.7332 3.8639 75.6338 3.7697 75.5628C3.73628 75.5384 3.7001 75.518 3.6619 75.502Z" fill="#4D8AF0"/>
<path opacity="0.5" d="M54.912 16.8177C54.6656 16.7105 54.4673 16.5164 54.3548 16.2725C54.2423 16.0285 54.2235 15.7518 54.3019 15.4948C54.3146 15.4554 54.3226 15.4147 54.3257 15.3734C54.3329 15.2557 54.3019 15.1388 54.2374 15.04C54.1729 14.9413 54.0784 14.8659 53.9677 14.8251C53.857 14.7843 53.7361 14.7802 53.6229 14.8134C53.5098 14.8467 53.4103 14.9155 53.3393 15.0096C53.3149 15.043 53.2945 15.0792 53.2785 15.1174C53.1712 15.3637 52.9771 15.5619 52.7331 15.6744C52.4891 15.7869 52.2123 15.8057 51.9553 15.7273C51.9159 15.7147 51.8751 15.7067 51.8338 15.7035C51.7161 15.6964 51.5992 15.7273 51.5004 15.7918C51.4016 15.8562 51.3262 15.9508 51.2854 16.0614C51.2446 16.1721 51.2405 16.2929 51.2737 16.4061C51.3069 16.5192 51.3758 16.6187 51.47 16.6897C51.5034 16.7141 51.5396 16.7345 51.5778 16.7504C51.8241 16.8577 52.0224 17.0518 52.1349 17.2957C52.2474 17.5396 52.2662 17.8164 52.1878 18.0733C52.1752 18.1127 52.1672 18.1535 52.164 18.1948C52.1569 18.3125 52.1878 18.4294 52.2523 18.5281C52.3168 18.6269 52.4114 18.7023 52.522 18.7431C52.6327 18.7839 52.7536 18.788 52.8668 18.7547C52.98 18.7215 53.0794 18.6527 53.1504 18.5585C53.1749 18.5251 53.1952 18.4889 53.2112 18.4508C53.3185 18.2045 53.5126 18.0062 53.7566 17.8938C54.0006 17.7813 54.2775 17.7625 54.5345 17.8408C54.5739 17.8535 54.6146 17.8615 54.6559 17.8646C54.7736 17.8718 54.8906 17.8409 54.9893 17.7764C55.0881 17.7119 55.1635 17.6174 55.2043 17.5067C55.2452 17.3961 55.2493 17.2752 55.216 17.1621C55.1828 17.0489 55.114 16.9495 55.0198 16.8785C54.9863 16.8541 54.9502 16.8337 54.912 16.8177Z" fill="#4D8AF0"/>
<path opacity="0.5" d="M117.485 169.039C117.238 168.932 117.04 168.738 116.928 168.494C116.815 168.25 116.796 167.973 116.875 167.716C116.887 167.677 116.895 167.636 116.898 167.595C116.906 167.477 116.875 167.36 116.81 167.262C116.746 167.163 116.651 167.088 116.54 167.047C116.43 167.006 116.309 167.002 116.196 167.035C116.083 167.068 115.983 167.137 115.912 167.231C115.888 167.265 115.867 167.301 115.851 167.339C115.744 167.585 115.55 167.784 115.306 167.896C115.062 168.008 114.785 168.027 114.528 167.949C114.489 167.936 114.448 167.928 114.407 167.925C114.289 167.918 114.172 167.949 114.073 168.013C113.974 168.078 113.899 168.172 113.858 168.283C113.817 168.394 113.813 168.515 113.846 168.628C113.88 168.741 113.948 168.84 114.043 168.911C114.076 168.936 114.112 168.956 114.151 168.972C114.397 169.079 114.595 169.273 114.708 169.517C114.82 169.761 114.839 170.038 114.761 170.295C114.748 170.334 114.74 170.375 114.737 170.416C114.73 170.534 114.761 170.651 114.825 170.75C114.89 170.849 114.984 170.924 115.095 170.965C115.205 171.006 115.326 171.01 115.44 170.976C115.553 170.943 115.652 170.874 115.723 170.78C115.748 170.747 115.768 170.711 115.784 170.672C115.891 170.426 116.085 170.228 116.329 170.115C116.573 170.003 116.85 169.984 117.107 170.062C117.147 170.075 117.187 170.083 117.229 170.086C117.346 170.093 117.463 170.062 117.562 169.998C117.661 169.934 117.736 169.839 117.777 169.728C117.818 169.618 117.822 169.497 117.789 169.384C117.756 169.271 117.687 169.171 117.593 169.1C117.559 169.076 117.523 169.055 117.485 169.039Z" fill="#4D8AF0"/>
<path opacity="0.5" d="M226.273 134.05C227.261 134.05 228.061 133.25 228.061 132.263C228.061 131.276 227.261 130.476 226.273 130.476C225.286 130.476 224.485 131.276 224.485 132.263C224.485 133.25 225.286 134.05 226.273 134.05Z" fill="#F55F44"/>
<path opacity="0.5" d="M186.942 145.37C187.929 145.37 188.73 144.57 188.73 143.583C188.73 142.596 187.929 141.795 186.942 141.795C185.954 141.795 185.154 142.596 185.154 143.583C185.154 144.57 185.954 145.37 186.942 145.37Z" fill="#4D8AF0"/>
<path opacity="0.5" d="M30.8079 162.946C31.7953 162.946 32.5957 162.145 32.5957 161.158C32.5957 160.171 31.7953 159.371 30.8079 159.371C29.8206 159.371 29.0201 160.171 29.0201 161.158C29.0201 162.145 29.8206 162.946 30.8079 162.946Z" fill="#47E6B1"/>
<path opacity="0.5" d="M122.581 3.57468C123.569 3.57468 124.369 2.77446 124.369 1.78734C124.369 0.800219 123.569 0 122.581 0C121.594 0 120.793 0.800219 120.793 1.78734C120.793 2.77446 121.594 3.57468 122.581 3.57468Z" fill="#F55F44"/>
<path d="M61.0514 106.496L53.9003 117.22C53.9003 117.22 56.284 128.241 109.024 127.944C161.764 127.646 165.935 117.22 165.935 117.22L156.102 102.921L126.008 82.3665L61.0514 106.496Z" fill="#003C93"/>
<path opacity="0.15" d="M61.0514 106.496L53.9003 117.22C53.9003 117.22 56.284 128.241 109.024 127.944C161.764 127.646 165.935 117.22 165.935 117.22L156.102 102.921L126.008 82.3665L61.0514 106.496Z" fill="black"/>
<path d="M213.163 66.7273L119.304 108.134L4.88485 66.7273L109.769 19.0649L161.254 42.7978L163.099 43.6498L213.163 66.7273Z" fill="#003C93"/>
<path opacity="0.15" d="M213.163 66.7273L119.304 108.134L4.88485 66.7273L109.769 19.0649L161.254 42.7978L163.099 43.6498L213.163 66.7273Z" fill="black"/>
<path d="M165.041 76.653L163.253 76.7602L161.254 42.7978L163.099 43.6498L165.041 76.653Z" fill="#F5F5F5"/>
<path d="M62.2433 66.5783L53.9003 117.22C53.9003 117.22 113.791 97.8568 165.935 117.22L158.188 63.5994C158.188 63.5994 88.1663 54.9606 62.2433 66.5783Z" fill="#003C93"/>
<path d="M164.892 86.9838C169.665 86.9838 173.533 84.3164 173.533 81.026C173.533 77.7356 169.665 75.0682 164.892 75.0682C160.12 75.0682 156.251 77.7356 156.251 81.026C156.251 84.3164 160.12 86.9838 164.892 86.9838Z" fill="#F5F5F5"/>
<defs>
<linearGradient id="paint0_linear" x1="69.323" y1="127.764" x2="79.0794" y2="108.095" gradientUnits="userSpaceOnUse">
<stop stop-color="#808080" stop-opacity="0.25"/>
<stop offset="0.53514" stop-color="#808080" stop-opacity="0.12"/>
<stop offset="1" stop-color="#808080" stop-opacity="0.1"/>
</linearGradient>
</defs>
</svg>
